<svg xmlns="http://www.w3.org/2000/svg" xmlns:xlink="http://www.w3.org/1999/xlink" width="512" zoomAndPan="magnify" viewBox="0 0 384 383.999986" height="512" preserveAspectRatio="xMidYMid meet" version="1.0"><defs><clipPath id="609e8ee3c1"><path d="M 272 87 L 329 87 L 329 230 L 272 230 Z M 272 87 " clip-rule="nonzero"/></clipPath><clipPath id="294730e380"><path d="M 16.265625 145.253906 L 310.964844 54.855469 L 367.492188 239.128906 L 72.792969 329.53125 Z M 16.265625 145.253906 " clip-rule="nonzero"/></clipPath><clipPath id="d92c65ed9c"><path d="M 16.265625 145.253906 L 310.964844 54.855469 L 367.492188 239.128906 L 72.792969 329.53125 Z M 16.265625 145.253906 " clip-rule="nonzero"/></clipPath><clipPath id="3d77cb67dc"><path d="M 250 94 L 307 94 L 307 237 L 250 237 Z M 250 94 " clip-rule="nonzero"/></clipPath><clipPath id="124010106d"><path d="M 16.265625 145.253906 L 310.964844 54.855469 L 367.492188 239.128906 L 72.792969 329.53125 Z M 16.265625 145.253906 " clip-rule="nonzero"/></clipPath><clipPath id="2fad2d4322"><path d="M 16.265625 145.253906 L 310.964844 54.855469 L 367.492188 239.128906 L 72.792969 329.53125 Z M 16.265625 145.253906 " clip-rule="nonzero"/></clipPath><clipPath id="da934d2cf7"><path d="M 221 79 L 291 79 L 291 265 L 221 265 Z M 221 79 " clip-rule="nonzero"/></clipPath><clipPath id="8430204eea"><path d="M 16.265625 145.253906 L 310.964844 54.855469 L 367.492188 239.128906 L 72.792969 329.53125 Z M 16.265625 145.253906 " clip-rule="nonzero"/></clipPath><clipPath id="30bf08dbd3"><path d="M 16.265625 145.253906 L 310.964844 54.855469 L 367.492188 239.128906 L 72.792969 329.53125 Z M 16.265625 145.253906 " clip-rule="nonzero"/></clipPath><clipPath id="a70d11f7e1"><path d="M 114 150 L 270 150 L 270 234 L 114 234 Z M 114 150 " clip-rule="nonzero"/></clipPath><clipPath id="76e9233612"><path d="M 16.265625 145.253906 L 310.964844 54.855469 L 367.492188 239.128906 L 72.792969 329.53125 Z M 16.265625 145.253906 " clip-rule="nonzero"/></clipPath><clipPath id="50438c6f5f"><path d="M 16.265625 145.253906 L 310.964844 54.855469 L 367.492188 239.128906 L 72.792969 329.53125 Z M 16.265625 145.253906 " clip-rule="nonzero"/></clipPath><clipPath id="b8f94223e8"><path d="M 285 119 L 346 119 L 346 189 L 285 189 Z M 285 119 " clip-rule="nonzero"/></clipPath><clipPath id="7c320339a0"><path d="M 16.265625 145.253906 L 310.964844 54.855469 L 367.492188 239.128906 L 72.792969 329.53125 Z M 16.265625 145.253906 " clip-rule="nonzero"/></clipPath><clipPath id="804b9a8f5d"><path d="M 16.265625 145.253906 L 310.964844 54.855469 L 367.492188 239.128906 L 72.792969 329.53125 Z M 16.265625 145.253906 " clip-rule="nonzero"/></clipPath><clipPath id="2b03a8c166"><path d="M 55 154 L 112 154 L 112 297 L 55 297 Z M 55 154 " clip-rule="nonzero"/></clipPath><clipPath id="198cbc6d28"><path d="M 16.265625 145.253906 L 310.964844 54.855469 L 367.492188 239.128906 L 72.792969 329.53125 Z M 16.265625 145.253906 " clip-rule="nonzero"/></clipPath><clipPath id="da9fc86ec1"><path d="M 16.265625 145.253906 L 310.964844 54.855469 L 367.492188 239.128906 L 72.792969 329.53125 Z M 16.265625 145.253906 " clip-rule="nonzero"/></clipPath><clipPath id="43257e071a"><path d="M 77 147 L 134 147 L 134 290 L 77 290 Z M 77 147 " clip-rule="nonzero"/></clipPath><clipPath id="517f905598"><path d="M 16.265625 145.253906 L 310.964844 54.855469 L 367.492188 239.128906 L 72.792969 329.53125 Z M 16.265625 145.253906 " clip-rule="nonzero"/></clipPath><clipPath id="4ff4d7fd5a"><path d="M 16.265625 145.253906 L 310.964844 54.855469 L 367.492188 239.128906 L 72.792969 329.53125 Z M 16.265625 145.253906 " clip-rule="nonzero"/></clipPath><clipPath id="c1bc9c297c"><path d="M 92 119 L 163 119 L 163 305 L 92 305 Z M 92 119 " clip-rule="nonzero"/></clipPath><clipPath id="abcac2f7b0"><path d="M 16.265625 145.253906 L 310.964844 54.855469 L 367.492188 239.128906 L 72.792969 329.53125 Z M 16.265625 145.253906 " clip-rule="nonzero"/></clipPath><clipPath id="86258dcc66"><path d="M 16.265625 145.253906 L 310.964844 54.855469 L 367.492188 239.128906 L 72.792969 329.53125 Z M 16.265625 145.253906 " clip-rule="nonzero"/></clipPath><clipPath id="f0cc118e9f"><path d="M 38 194 L 99 194 L 99 265 L 38 265 Z M 38 194 " clip-rule="nonzero"/></clipPath><clipPath id="d44bebfff9"><path d="M 16.265625 145.253906 L 310.964844 54.855469 L 367.492188 239.128906 L 72.792969 329.53125 Z M 16.265625 145.253906 " clip-rule="nonzero"/></clipPath><clipPath id="fe37c6c98b"><path d="M 16.265625 145.253906 L 310.964844 54.855469 L 367.492188 239.128906 L 72.792969 329.53125 Z M 16.265625 145.253906 " clip-rule="nonzero"/></clipPath></defs><g clip-path="url(#609e8ee3c1)"><g clip-path="url(#294730e380)"><g clip-path="url(#d92c65ed9c)"><path fill="#545454" d="M 322.296875 229.308594 C 317.585938 230.753906 312.597656 228.109375 311.152344 223.394531 L 272.996094 99.023438 C 271.550781 94.308594 274.199219 89.320312 278.90625 87.875 C 283.617188 86.429688 288.609375 89.070312 290.054688 93.789062 L 328.210938 218.160156 C 329.660156 222.878906 327.007812 227.863281 322.296875 229.308594 Z M 322.296875 229.308594 " fill-opacity="1" fill-rule="nonzero"/></g></g></g><g clip-path="url(#3d77cb67dc)"><g clip-path="url(#124010106d)"><g clip-path="url(#2fad2d4322)"><path fill="#545454" d="M 300.175781 236.097656 C 295.460938 237.542969 290.476562 234.894531 289.03125 230.179688 L 250.871094 105.808594 C 249.425781 101.09375 252.070312 96.105469 256.785156 94.660156 C 261.496094 93.214844 266.484375 95.859375 267.933594 100.574219 L 306.089844 224.945312 C 307.535156 229.664062 304.886719 234.652344 300.175781 236.097656 Z M 300.175781 236.097656 " fill-opacity="1" fill-rule="nonzero"/></g></g></g><g clip-path="url(#da934d2cf7)"><g clip-path="url(#8430204eea)"><g clip-path="url(#30bf08dbd3)"><path fill="#545454" d="M 284.574219 264.148438 C 279.859375 265.59375 274.867188 262.949219 273.421875 258.234375 L 222.222656 91.328125 C 220.777344 86.617188 223.421875 81.628906 228.132812 80.183594 C 232.847656 78.738281 237.835938 81.382812 239.285156 86.097656 L 290.488281 253 C 291.933594 257.714844 289.285156 262.703125 284.574219 264.148438 Z M 284.574219 264.148438 " fill-opacity="1" fill-rule="nonzero"/></g></g></g><g clip-path="url(#a70d11f7e1)"><g clip-path="url(#76e9233612)"><g clip-path="url(#50438c6f5f)"><path fill="#545454" d="M 262.898438 193.496094 L 134.054688 233.019531 C 129.34375 234.464844 124.351562 231.820312 122.910156 227.113281 L 115.058594 201.519531 C 113.613281 196.804688 116.261719 191.816406 120.972656 190.371094 L 249.816406 150.847656 C 254.527344 149.402344 259.519531 152.042969 260.964844 156.761719 L 268.816406 182.355469 C 270.261719 187.0625 267.609375 192.050781 262.898438 193.496094 Z M 137.351562 213.347656 L 249.132812 179.058594 L 246.515625 170.523438 L 134.734375 204.8125 Z M 137.351562 213.347656 " fill-opacity="1" fill-rule="nonzero"/></g></g></g><g clip-path="url(#b8f94223e8)"><g clip-path="url(#7c320339a0)"><g clip-path="url(#804b9a8f5d)"><path fill="#545454" d="M 339.511719 179.335938 L 309.761719 188.464844 C 305.054688 189.90625 300.066406 187.261719 298.617188 182.546875 L 285.523438 139.863281 C 284.078125 135.152344 286.730469 130.164062 291.4375 128.71875 L 321.1875 119.59375 C 325.898438 118.148438 330.890625 120.789062 332.335938 125.503906 L 345.429688 168.1875 C 346.875 172.90625 344.226562 177.890625 339.511719 179.335938 Z M 313.058594 168.78125 L 325.753906 164.886719 L 317.894531 139.269531 L 305.203125 143.164062 Z M 313.058594 168.78125 " fill-opacity="1" fill-rule="nonzero"/></g></g></g><g clip-path="url(#2b03a8c166)"><g clip-path="url(#198cbc6d28)"><g clip-path="url(#da9fc86ec1)"><path fill="#545454" d="M 104.953125 295.980469 C 100.238281 297.429688 95.25 294.78125 93.800781 290.066406 L 55.652344 165.703125 C 54.207031 160.988281 56.855469 156 61.566406 154.554688 C 66.28125 153.109375 71.269531 155.753906 72.71875 160.46875 L 110.867188 284.832031 C 112.3125 289.550781 109.664062 294.535156 104.953125 295.980469 Z M 104.953125 295.980469 " fill-opacity="1" fill-rule="nonzero"/></g></g></g><g clip-path="url(#43257e071a)"><g clip-path="url(#517f905598)"><g clip-path="url(#4ff4d7fd5a)"><path fill="#545454" d="M 127.078125 289.195312 C 122.367188 290.640625 117.375 287.996094 115.925781 283.28125 L 77.777344 158.914062 C 76.332031 154.199219 78.980469 149.210938 83.691406 147.765625 C 88.40625 146.320312 93.394531 148.964844 94.84375 153.679688 L 132.992188 278.046875 C 134.4375 282.761719 131.789062 287.75 127.078125 289.195312 Z M 127.078125 289.195312 " fill-opacity="1" fill-rule="nonzero"/></g></g></g><g clip-path="url(#c1bc9c297c)"><g clip-path="url(#abcac2f7b0)"><g clip-path="url(#86258dcc66)"><path fill="#545454" d="M 155.730469 303.671875 C 151.019531 305.117188 146.027344 302.472656 144.582031 297.757812 L 93.375 130.855469 C 91.929688 126.140625 94.578125 121.152344 99.292969 119.707031 C 104.003906 118.261719 108.996094 120.90625 110.441406 125.621094 L 161.640625 292.523438 C 163.085938 297.238281 160.441406 302.226562 155.730469 303.671875 Z M 155.730469 303.671875 " fill-opacity="1" fill-rule="nonzero"/></g></g></g><g clip-path="url(#f0cc118e9f)"><g clip-path="url(#d44bebfff9)"><g clip-path="url(#fe37c6c98b)"><path fill="#545454" d="M 92.425781 255.144531 L 62.675781 264.269531 C 57.964844 265.714844 52.972656 263.070312 51.527344 258.351562 L 38.433594 215.664062 C 36.984375 210.949219 39.636719 205.960938 44.347656 204.515625 L 74.09375 195.390625 C 78.808594 193.945312 83.796875 196.589844 85.242188 201.300781 L 98.339844 243.992188 C 99.785156 248.710938 97.136719 253.699219 92.425781 255.144531 Z M 65.96875 244.589844 L 78.65625 240.699219 L 70.796875 215.066406 L 58.109375 218.960938 Z M 65.96875 244.589844 " fill-opacity="1" fill-rule="nonzero"/></g></g></g></svg>