<svg xmlns="http://www.w3.org/2000/svg" xmlns:xlink="http://www.w3.org/1999/xlink" width="256" zoomAndPan="magnify" viewBox="0 0 192 191.999996" height="256" preserveAspectRatio="xMidYMid meet" version="1.0"><defs><clipPath id="01b47b4670"><path d="M 4 79 L 188 79 L 188 162.347656 L 4 162.347656 Z M 4 79 " clip-rule="nonzero"/></clipPath><clipPath id="504d3c6bdf"><path d="M 18 29.597656 L 176 29.597656 L 176 76 L 18 76 Z M 18 29.597656 " clip-rule="nonzero"/></clipPath></defs><g clip-path="url(#01b47b4670)"><path fill="#737373" d="M 184.160156 162.359375 C 182.054688 162.359375 180.351562 160.65625 180.351562 158.550781 L 180.351562 91.335938 C 180.351562 88.816406 178.296875 86.765625 175.773438 86.765625 L 16.242188 86.765625 C 13.71875 86.765625 11.664062 88.816406 11.664062 91.335938 L 11.664062 158.550781 C 11.664062 160.65625 9.957031 162.359375 7.851562 162.359375 C 5.742188 162.359375 4.042969 160.65625 4.042969 158.550781 L 4.042969 91.335938 C 4.042969 84.613281 9.515625 79.140625 16.238281 79.140625 L 175.773438 79.140625 C 182.496094 79.140625 187.972656 84.613281 187.972656 91.335938 L 187.972656 158.550781 C 187.972656 160.65625 186.265625 162.359375 184.160156 162.359375 Z M 184.160156 162.359375 " fill-opacity="1" fill-rule="nonzero"/></g><g clip-path="url(#504d3c6bdf)"><path fill="#737373" d="M 172.050781 75.621094 C 169.945312 75.621094 168.238281 73.917969 168.238281 71.8125 L 168.238281 41.800781 C 168.238281 39.277344 166.1875 37.226562 163.660156 37.226562 L 30.777344 37.226562 C 28.253906 37.226562 26.199219 39.277344 26.199219 41.800781 L 26.199219 71.8125 C 26.199219 73.917969 24.492188 75.621094 22.386719 75.621094 C 20.28125 75.621094 18.578125 73.917969 18.578125 71.8125 L 18.578125 41.800781 C 18.578125 35.078125 24.050781 29.605469 30.777344 29.605469 L 163.664062 29.605469 C 170.386719 29.605469 175.863281 35.078125 175.863281 41.800781 L 175.863281 71.8125 C 175.863281 73.917969 174.160156 75.621094 172.050781 75.621094 Z M 172.050781 75.621094 " fill-opacity="1" fill-rule="nonzero"/></g><path fill="#737373" d="M 184.160156 130.90625 L 7.851562 130.90625 C 5.746094 130.90625 4.042969 129.203125 4.042969 127.09375 C 4.042969 124.988281 5.746094 123.285156 7.851562 123.285156 L 184.160156 123.285156 C 186.265625 123.285156 187.972656 124.988281 187.972656 127.09375 C 187.972656 129.203125 186.265625 130.90625 184.160156 130.90625 Z M 184.160156 130.90625 " fill-opacity="1" fill-rule="nonzero"/><path fill="#737373" d="M 184.160156 142.753906 L 7.851562 142.753906 C 5.746094 142.753906 4.042969 141.046875 4.042969 138.941406 C 4.042969 136.835938 5.746094 135.128906 7.851562 135.128906 L 184.160156 135.128906 C 186.265625 135.128906 187.972656 136.835938 187.972656 138.941406 C 187.972656 141.046875 186.265625 142.753906 184.160156 142.753906 Z M 184.160156 142.753906 " fill-opacity="1" fill-rule="nonzero"/><path fill="#737373" d="M 87.632812 75.621094 C 85.527344 75.621094 83.820312 73.917969 83.820312 71.8125 L 83.820312 61.523438 C 83.820312 60.007812 82.585938 58.769531 81.066406 58.769531 L 42.378906 58.769531 C 40.863281 58.769531 39.625 60.007812 39.625 61.523438 L 39.625 71.8125 C 39.625 73.917969 37.921875 75.621094 35.8125 75.621094 C 33.707031 75.621094 32.003906 73.917969 32.003906 71.8125 L 32.003906 61.523438 C 32.003906 55.804688 36.660156 51.152344 42.378906 51.152344 L 81.066406 51.152344 C 86.785156 51.152344 91.441406 55.804688 91.441406 61.523438 L 91.441406 71.8125 C 91.441406 73.917969 89.738281 75.621094 87.632812 75.621094 Z M 87.632812 75.621094 " fill-opacity="1" fill-rule="nonzero"/><path fill="#737373" d="M 156 75.621094 C 153.894531 75.621094 152.191406 73.917969 152.191406 71.8125 L 152.191406 61.523438 C 152.191406 60.007812 150.953125 58.769531 149.433594 58.769531 L 110.75 58.769531 C 109.226562 58.769531 107.992188 60.007812 107.992188 61.523438 L 107.992188 71.8125 C 107.992188 73.917969 106.289062 75.621094 104.179688 75.621094 C 102.074219 75.621094 100.371094 73.917969 100.371094 71.8125 L 100.371094 61.523438 C 100.371094 55.804688 105.023438 51.152344 110.75 51.152344 L 149.433594 51.152344 C 155.15625 51.152344 159.8125 55.804688 159.8125 61.523438 L 159.8125 71.8125 C 159.8125 73.917969 158.109375 75.621094 156 75.621094 Z M 156 75.621094 " fill-opacity="1" fill-rule="nonzero"/></svg>