<svg xmlns="http://www.w3.org/2000/svg" viewBox="0 0 192 192"><defs><clipPath id="a"><path d="M4 79h184v83.348H4Zm0 0"/></clipPath><clipPath id="b"><path d="M18 29.598h158V76H18Zm0 0"/></clipPath></defs><g clip-path="url(#a)"><path fill="#737373" d="M184.16 162.36a3.806 3.806 0 0 1-3.808-3.81V91.337a4.58 4.58 0 0 0-4.579-4.57H16.243a4.58 4.58 0 0 0-4.579 4.57v67.215a3.81 3.81 0 0 1-3.812 3.808 3.803 3.803 0 0 1-3.809-3.808V91.336c0-6.723 5.473-12.195 12.195-12.195h159.535c6.723 0 12.2 5.472 12.2 12.195v67.215a3.81 3.81 0 0 1-3.813 3.808m0 0"/></g><g clip-path="url(#b)"><path fill="#737373" d="M172.05 75.621a3.81 3.81 0 0 1-3.812-3.808V41.8a4.58 4.58 0 0 0-4.578-4.574H30.777A4.58 4.58 0 0 0 26.2 41.8v30.011a3.81 3.81 0 0 1-3.812 3.81 3.806 3.806 0 0 1-3.809-3.81V41.802c0-6.723 5.473-12.196 12.2-12.196h132.886c6.723 0 12.2 5.473 12.2 12.196v30.011a3.807 3.807 0 0 1-3.813 3.81m0 0"/></g><path fill="#737373" d="M184.16 130.906H7.852a3.807 3.807 0 0 1-3.809-3.812 3.806 3.806 0 0 1 3.809-3.809H184.16a3.81 3.81 0 1 1 0 7.621m0 11.848H7.852a3.81 3.81 0 0 1-3.809-3.813 3.81 3.81 0 0 1 3.809-3.812H184.16a3.813 3.813 0 0 1 0 7.625M87.633 75.621a3.81 3.81 0 0 1-3.813-3.808v-10.29a2.76 2.76 0 0 0-2.754-2.753H42.38a2.76 2.76 0 0 0-2.754 2.753v10.29a3.807 3.807 0 0 1-3.812 3.808 3.806 3.806 0 0 1-3.81-3.808v-10.29c0-5.718 4.657-10.37 10.376-10.37h38.687c5.72 0 10.375 4.652 10.375 10.37v10.29a3.806 3.806 0 0 1-3.808 3.808m68.366 0a3.806 3.806 0 0 1-3.809-3.808v-10.29a2.76 2.76 0 0 0-2.757-2.753H110.75a2.76 2.76 0 0 0-2.758 2.753v10.29a3.807 3.807 0 0 1-3.812 3.808 3.806 3.806 0 0 1-3.809-3.808v-10.29c0-5.718 4.652-10.37 10.379-10.37h38.684c5.722 0 10.379 4.652 10.379 10.37v10.29A3.807 3.807 0 0 1 156 75.62m0 0"/></svg>