<svg xmlns="http://www.w3.org/2000/svg" viewBox="0 0 384 384"><defs><clipPath id="a"><path d="M272 87h57v143h-57Zm0 0"/></clipPath><clipPath id="b"><path d="m16.266 145.254 294.699-90.399 56.527 184.274L72.793 329.53Zm0 0"/></clipPath><clipPath id="c"><path d="m16.266 145.254 294.699-90.399 56.527 184.274L72.793 329.53Zm0 0"/></clipPath><clipPath id="d"><path d="M250 94h57v143h-57Zm0 0"/></clipPath><clipPath id="e"><path d="m16.266 145.254 294.699-90.399 56.527 184.274L72.793 329.53Zm0 0"/></clipPath><clipPath id="f"><path d="m16.266 145.254 294.699-90.399 56.527 184.274L72.793 329.53Zm0 0"/></clipPath><clipPath id="g"><path d="M221 79h70v186h-70Zm0 0"/></clipPath><clipPath id="h"><path d="m16.266 145.254 294.699-90.399 56.527 184.274L72.793 329.53Zm0 0"/></clipPath><clipPath id="i"><path d="m16.266 145.254 294.699-90.399 56.527 184.274L72.793 329.53Zm0 0"/></clipPath><clipPath id="j"><path d="M114 150h156v84H114Zm0 0"/></clipPath><clipPath id="k"><path d="m16.266 145.254 294.699-90.399 56.527 184.274L72.793 329.53Zm0 0"/></clipPath><clipPath id="l"><path d="m16.266 145.254 294.699-90.399 56.527 184.274L72.793 329.53Zm0 0"/></clipPath><clipPath id="m"><path d="M285 119h61v70h-61Zm0 0"/></clipPath><clipPath id="n"><path d="m16.266 145.254 294.699-90.399 56.527 184.274L72.793 329.53Zm0 0"/></clipPath><clipPath id="o"><path d="m16.266 145.254 294.699-90.399 56.527 184.274L72.793 329.53Zm0 0"/></clipPath><clipPath id="p"><path d="M55 154h57v143H55Zm0 0"/></clipPath><clipPath id="q"><path d="m16.266 145.254 294.699-90.399 56.527 184.274L72.793 329.53Zm0 0"/></clipPath><clipPath id="r"><path d="m16.266 145.254 294.699-90.399 56.527 184.274L72.793 329.53Zm0 0"/></clipPath><clipPath id="s"><path d="M77 147h57v143H77Zm0 0"/></clipPath><clipPath id="t"><path d="m16.266 145.254 294.699-90.399 56.527 184.274L72.793 329.53Zm0 0"/></clipPath><clipPath id="u"><path d="m16.266 145.254 294.699-90.399 56.527 184.274L72.793 329.53Zm0 0"/></clipPath><clipPath id="v"><path d="M92 119h71v186H92Zm0 0"/></clipPath><clipPath id="w"><path d="m16.266 145.254 294.699-90.399 56.527 184.274L72.793 329.53Zm0 0"/></clipPath><clipPath id="x"><path d="m16.266 145.254 294.699-90.399 56.527 184.274L72.793 329.53Zm0 0"/></clipPath><clipPath id="y"><path d="M38 194h61v71H38Zm0 0"/></clipPath><clipPath id="z"><path d="m16.266 145.254 294.699-90.399 56.527 184.274L72.793 329.53Zm0 0"/></clipPath><clipPath id="A"><path d="m16.266 145.254 294.699-90.399 56.527 184.274L72.793 329.53Zm0 0"/></clipPath></defs><g clip-path="url(#a)"><g clip-path="url(#b)"><g clip-path="url(#c)"><path fill="#545454" d="M322.297 229.309a8.917 8.917 0 0 1-11.145-5.914L272.996 99.023c-1.445-4.714 1.203-9.703 5.91-11.148 4.711-1.445 9.703 1.195 11.149 5.914L328.21 218.16a8.92 8.92 0 0 1-5.914 11.149m0 0"/></g></g></g><g clip-path="url(#d)"><g clip-path="url(#e)"><g clip-path="url(#f)"><path fill="#545454" d="M300.176 236.098a8.92 8.92 0 0 1-11.145-5.918l-38.16-124.371a8.92 8.92 0 0 1 5.914-11.149 8.923 8.923 0 0 1 11.149 5.914l38.156 124.371c1.445 4.72-1.203 9.707-5.914 11.153m0 0"/></g></g></g><g clip-path="url(#g)"><g clip-path="url(#h)"><g clip-path="url(#i)"><path fill="#545454" d="M284.574 264.148c-4.715 1.446-9.707-1.199-11.152-5.914l-51.2-166.906a8.92 8.92 0 0 1 5.91-11.144 8.926 8.926 0 0 1 11.153 5.914L290.488 253a8.923 8.923 0 0 1-5.914 11.148m0 0"/></g></g></g><g clip-path="url(#j)"><g clip-path="url(#k)"><g clip-path="url(#l)"><path fill="#545454" d="M262.898 193.496 134.055 233.02c-4.711 1.445-9.703-1.2-11.145-5.907l-7.851-25.593a8.923 8.923 0 0 1 5.914-11.149l128.843-39.523c4.711-1.446 9.704 1.195 11.149 5.914l7.851 25.593c1.446 4.708-1.207 9.696-5.918 11.141m-125.546 19.852 111.78-34.29-2.616-8.535-111.782 34.29Zm0 0"/></g></g></g><g clip-path="url(#m)"><g clip-path="url(#n)"><g clip-path="url(#o)"><path fill="#545454" d="m339.512 179.336-29.75 9.129c-4.707 1.441-9.696-1.203-11.145-5.918l-13.094-42.684c-1.445-4.71 1.207-9.699 5.914-11.144l29.75-9.125c4.711-1.446 9.704 1.195 11.149 5.91l13.094 42.683a8.92 8.92 0 0 1-5.918 11.149m-26.453-10.555 12.695-3.894-7.86-25.617-12.69 3.894Zm0 0"/></g></g></g><g clip-path="url(#p)"><g clip-path="url(#q)"><g clip-path="url(#r)"><path fill="#545454" d="M104.953 295.98c-4.715 1.45-9.703-1.199-11.152-5.914L55.652 165.703a8.923 8.923 0 0 1 5.914-11.148 8.926 8.926 0 0 1 11.153 5.914l38.148 124.363a8.92 8.92 0 0 1-5.914 11.148m0 0"/></g></g></g><g clip-path="url(#s)"><g clip-path="url(#t)"><g clip-path="url(#u)"><path fill="#545454" d="M127.078 289.195a8.927 8.927 0 0 1-11.152-5.914L77.777 158.914a8.923 8.923 0 0 1 5.914-11.148 8.926 8.926 0 0 1 11.153 5.914l38.148 124.367a8.923 8.923 0 0 1-5.914 11.148m0 0"/></g></g></g><g clip-path="url(#v)"><g clip-path="url(#w)"><g clip-path="url(#x)"><path fill="#545454" d="M155.73 303.672a8.92 8.92 0 0 1-11.148-5.914L93.375 130.855a8.92 8.92 0 0 1 5.918-11.148 8.92 8.92 0 0 1 11.148 5.914l51.2 166.902c1.445 4.715-1.2 9.704-5.91 11.149m0 0"/></g></g></g><g clip-path="url(#y)"><g clip-path="url(#z)"><g clip-path="url(#A)"><path fill="#545454" d="m92.426 255.145-29.75 9.125a8.92 8.92 0 0 1-11.149-5.918l-13.093-42.688c-1.45-4.715 1.203-9.703 5.914-11.148l29.746-9.125c4.715-1.446 9.703 1.199 11.148 5.91l13.098 42.691c1.445 4.719-1.203 9.707-5.914 11.153M65.969 244.59l12.687-3.89-7.86-25.634-12.687 3.895Zm0 0"/></g></g></g></svg>