<svg xmlns="http://www.w3.org/2000/svg" xmlns:xlink="http://www.w3.org/1999/xlink" viewBox="0 0 64 64" preserveAspectRatio="xMidYMid meet" version="1.0"><defs><clipPath id="75d46e1e6f"><path d="M 126.144531 115.199219 L 240 115.199219 L 240 267 L 126.144531 267 Z M 126.144531 115.199219 " clip-rule="nonzero"/></clipPath></defs><g clip-path="url(#75d46e1e6f)"><path fill="#545454" d="M 183.730469 266.652344 C 168.125 266.652344 129.554688 264.214844 126.140625 219.800781 C 126.140625 219.800781 136.128906 237.496094 136.144531 235.417969 C 136.191406 228.660156 126.140625 203.9375 151.273438 187.101562 C 182.03125 166.496094 172.75 141.222656 165.425781 140.734375 C 165.425781 140.734375 185.109375 138.742188 186.902344 164.84375 C 187.878906 179.046875 199.835938 138.050781 192.761719 115.355469 C 192.761719 115.355469 228.691406 134.390625 224.238281 181.242188 C 224.238281 181.242188 229.789062 170.628906 239.125 176.300781 C 239.125 176.300781 233.265625 178.316406 235.222656 193.933594 C 237.171875 209.550781 245.710938 266.652344 183.730469 266.652344 " fill-opacity="1" fill-rule="nonzero"/></g><path fill="#ffffff" d="M 179.09375 265.03125 C 169.007812 264.570312 149.808594 262.347656 149.808594 237.214844 C 149.808594 212.078125 174.945312 208.660156 174.945312 185.480469 C 174.945312 185.480469 186.902344 189.625 185.683594 201.097656 C 185.683594 201.097656 209.109375 186.457031 207.15625 169.128906 C 207.15625 169.128906 257.832031 268.632812 179.09375 265.03125 " fill-opacity="1" fill-rule="nonzero"/><path fill="#ffffff" d="M 179.09375 265.03125 C 169.007812 264.570312 149.808594 262.347656 149.808594 237.214844 C 149.808594 212.078125 174.945312 208.660156 174.945312 185.480469 C 174.945312 185.480469 186.902344 189.625 185.683594 201.097656 C 185.683594 201.097656 209.109375 186.457031 207.15625 169.128906 C 207.15625 169.128906 257.832031 268.632812 179.09375 265.03125 " fill-opacity="1" fill-rule="nonzero"/><path fill="#a6a6a6" d="M 183.972656 221.738281 C 183.972656 221.738281 190.074219 239.625 180.070312 239.625 C 173.113281 239.625 173.96875 232.0625 173.96875 232.0625 C 173.96875 232.0625 154.566406 263.542969 183.972656 263.542969 C 189.929688 263.542969 200.324219 262.320312 200.324219 246.214844 C 200.324219 230.109375 191.292969 223.617188 183.972656 221.738281 " fill-opacity="1" fill-rule="nonzero"/></svg>
