<svg xmlns="http://www.w3.org/2000/svg" viewBox="0 0 64 64"><defs><clipPath id="a"><path d="M126.145 115.2H240V267H126.145Zm0 0"/></clipPath></defs><g clip-path="url(#a)"><path fill="#545454" d="M183.73 266.652c-15.605 0-54.175-2.437-57.59-46.851 0 0 9.989 17.695 10.005 15.617.046-6.758-10.004-31.48 15.128-48.316 30.758-20.606 21.477-45.88 14.153-46.368 0 0 19.683-1.992 21.476 24.11.977 14.203 12.934-26.793 5.86-49.489 0 0 35.93 19.036 31.476 65.887 0 0 5.551-10.613 14.887-4.941 0 0-5.86 2.015-3.902 17.633 1.949 15.617 10.488 72.718-51.493 72.718"/></g><path fill="#fff" d="M179.094 265.031c-10.086-.46-29.285-2.683-29.285-27.816 0-25.137 25.136-28.555 25.136-51.735 0 0 11.957 4.145 10.739 15.618 0 0 23.425-14.641 21.472-31.97 0 0 50.676 99.505-28.062 95.903"/><path fill="#fff" d="M179.094 265.031c-10.086-.46-29.285-2.683-29.285-27.816 0-25.137 25.136-28.555 25.136-51.735 0 0 11.957 4.145 10.739 15.618 0 0 23.425-14.641 21.472-31.97 0 0 50.676 99.505-28.062 95.903"/><path fill="#a6a6a6" d="M183.973 221.738s6.101 17.887-3.903 17.887c-6.957 0-6.101-7.562-6.101-7.562s-19.403 31.48 10.004 31.48c5.957 0 16.351-1.223 16.351-17.328 0-16.106-9.031-22.598-16.351-24.477"/></svg>