<svg xmlns="http://www.w3.org/2000/svg" viewBox="0 0 192 192"><defs><clipPath id="a"><path d="M36 4h121v183.738H36Zm0 0"/></clipPath></defs><g clip-path="url(#a)"><path fill="#737373" d="M98.227 187.36s-57.34.628-61.754-49.493c-2.16-35.765 18.601-45.297 17.449-79.613-.031-.98 1.086-1.559 1.871-.965 3.625 2.742 11.246 9.52 14.39 19.98.352 1.168 2.032 1.075 2.258-.12 3.032-16.036 15.036-56.06 60.536-72.797 1.023-.38 1.953.746 1.398 1.687-4.863 8.234-17.887 32.863-9.32 47.656 6.175 10.672 8.906 17.895 10.11 22 .32 1.11 1.882 1.121 2.23.024l2.457-7.809c.37-1.18 2.082-1.047 2.265.176 3.352 22.402 15.594 42.582 14.453 65.996-.683 14.055-4.992 28.395-15.277 38.445-11.371 11.11-27.629 14.7-43.066 14.832m0 0"/></g><path fill="#fff" d="M83.098 118.398c.87.692 2.117-.105 1.855-1.183-5.848-24.414 9.2-41.785 15.617-47.883.809-.77 2.14-.07 1.953 1.031-2.043 11.973 3.204 23.215 12.13 31.567 7.269 6.8 7.21 14.996 6.706 18.75-.125.925.84 1.597 1.68 1.187 5.383-2.62 9.09-7.496 10.875-10.277.527-.82 1.762-.668 2.082.25 7.32 20.91 10.563 58.137-36.527 57.992-49.098-.148-41.246-35.75-38.094-45.207 2.176-6.523-.148-11.246-1.8-13.55a1.169 1.169 0 0 1 .886-1.856c8.98-.524 18.129 5.617 22.637 9.18m0 0"/></svg>