<svg xmlns="http://www.w3.org/2000/svg" xmlns:xlink="http://www.w3.org/1999/xlink" width="256" zoomAndPan="magnify" viewBox="0 0 192 191.999996" height="256" preserveAspectRatio="xMidYMid meet" version="1.0"><defs><clipPath id="44683970a0"><path d="M 36 4 L 157 4 L 157 187.738281 L 36 187.738281 Z M 36 4 " clip-rule="nonzero"/></clipPath></defs><g clip-path="url(#44683970a0)"><path fill="#737373" d="M 98.226562 187.359375 C 98.226562 187.359375 40.886719 187.988281 36.472656 137.867188 C 34.3125 102.101562 55.074219 92.570312 53.921875 58.253906 C 53.890625 57.273438 55.007812 56.695312 55.792969 57.289062 C 59.417969 60.03125 67.039062 66.808594 70.183594 77.269531 C 70.535156 78.4375 72.214844 78.34375 72.441406 77.148438 C 75.472656 61.113281 87.476562 21.089844 132.976562 4.351562 C 134 3.972656 134.929688 5.097656 134.375 6.039062 C 129.511719 14.273438 116.488281 38.902344 125.054688 53.695312 C 131.230469 64.367188 133.960938 71.589844 135.164062 75.695312 C 135.484375 76.804688 137.046875 76.816406 137.394531 75.71875 L 139.851562 67.910156 C 140.222656 66.730469 141.933594 66.863281 142.117188 68.085938 C 145.46875 90.488281 157.710938 110.667969 156.570312 134.082031 C 155.886719 148.136719 151.578125 162.476562 141.292969 172.527344 C 129.921875 183.636719 113.664062 187.226562 98.226562 187.359375 Z M 98.226562 187.359375 " fill-opacity="1" fill-rule="nonzero"/></g><path fill="#ffffff" d="M 83.097656 118.398438 C 83.96875 119.089844 85.214844 118.292969 84.953125 117.214844 C 79.105469 92.800781 94.152344 75.429688 100.570312 69.332031 C 101.378906 68.5625 102.710938 69.261719 102.523438 70.363281 C 100.480469 82.335938 105.726562 93.578125 114.652344 101.929688 C 121.921875 108.730469 121.863281 116.925781 121.359375 120.679688 C 121.234375 121.605469 122.199219 122.277344 123.039062 121.867188 C 128.421875 119.246094 132.128906 114.371094 133.914062 111.589844 C 134.441406 110.769531 135.675781 110.921875 135.996094 111.839844 C 143.316406 132.75 146.558594 169.976562 99.46875 169.832031 C 50.371094 169.683594 58.222656 134.082031 61.375 124.625 C 63.550781 118.101562 61.226562 113.378906 59.574219 111.074219 C 59.027344 110.316406 59.53125 109.273438 60.460938 109.21875 C 69.441406 108.695312 78.589844 114.835938 83.097656 118.398438 Z M 83.097656 118.398438 " fill-opacity="1" fill-rule="nonzero"/></svg>