<svg xmlns="http://www.w3.org/2000/svg" xmlns:xlink="http://www.w3.org/1999/xlink" width="1600" zoomAndPan="magnify" viewBox="0 0 1200 599.999999" height="800" preserveAspectRatio="xMidYMid meet" version="1.0"><defs><g/><clipPath id="9de2f9153f"><rect x="0" width="1162" y="0" height="252"/></clipPath></defs><g transform="matrix(1, 0, 0, 1, 21, 174)"><g clip-path="url(#9de2f9153f)"><g fill="#000000" fill-opacity="1"><g transform="translate(1.173713, 201.475036)"><g><path d="M 69.078125 2.234375 C 56.753906 2.234375 46.085938 0.335938 37.078125 -3.453125 C 28.066406 -7.242188 21.070312 -12.847656 16.09375 -20.265625 C 11.125 -27.679688 8.535156 -36.773438 8.328125 -47.546875 L 38.5 -47.546875 C 38.769531 -42.398438 40.222656 -38.046875 42.859375 -34.484375 C 45.503906 -30.929688 49.0625 -28.253906 53.53125 -26.453125 C 58 -24.660156 63.113281 -23.765625 68.875 -23.765625 C 74.425781 -23.765625 79.285156 -24.578125 83.453125 -26.203125 C 87.617188 -27.828125 90.851562 -30.097656 93.15625 -33.015625 C 95.457031 -35.929688 96.609375 -39.285156 96.609375 -43.078125 C 96.609375 -46.523438 95.609375 -49.429688 93.609375 -51.796875 C 91.609375 -54.171875 88.660156 -56.203125 84.765625 -57.890625 C 80.878906 -59.585938 76.054688 -61.082031 70.296875 -62.375 L 53.84375 -66.4375 C 40.5625 -69.550781 30.28125 -74.476562 23 -81.21875 C 15.726562 -87.957031 12.09375 -96.8125 12.09375 -107.78125 C 12.09375 -116.925781 14.546875 -124.914062 19.453125 -131.75 C 24.359375 -138.59375 31.09375 -143.925781 39.65625 -147.75 C 48.226562 -151.582031 58.066406 -153.5 69.171875 -153.5 C 80.421875 -153.5 90.226562 -151.566406 98.59375 -147.703125 C 106.957031 -143.847656 113.472656 -138.460938 118.140625 -131.546875 C 122.816406 -124.640625 125.253906 -116.617188 125.453125 -107.484375 L 95.59375 -107.484375 C 95.050781 -113.773438 92.425781 -118.679688 87.71875 -122.203125 C 83.007812 -125.722656 76.757812 -127.484375 68.96875 -127.484375 C 63.757812 -127.484375 59.257812 -126.722656 55.46875 -125.203125 C 51.675781 -123.679688 48.78125 -121.582031 46.78125 -118.90625 C 44.78125 -116.226562 43.78125 -113.164062 43.78125 -109.71875 C 43.78125 -106.125 44.847656 -103.125 46.984375 -100.71875 C 49.117188 -98.3125 52.0625 -96.3125 55.8125 -94.71875 C 59.570312 -93.132812 63.789062 -91.800781 68.46875 -90.71875 L 82.28125 -87.359375 C 88.988281 -85.867188 95.132812 -83.890625 100.71875 -81.421875 C 106.3125 -78.953125 111.140625 -75.953125 115.203125 -72.421875 C 119.265625 -68.898438 122.378906 -64.734375 124.546875 -59.921875 C 126.710938 -55.117188 127.796875 -49.640625 127.796875 -43.484375 C 127.796875 -34.203125 125.457031 -26.125 120.78125 -19.25 C 116.113281 -12.375 109.410156 -7.070312 100.671875 -3.34375 C 91.929688 0.375 81.398438 2.234375 69.078125 2.234375 Z M 69.078125 2.234375 "/></g></g></g><g fill="#000000" fill-opacity="1"><g transform="translate(141.462911, 201.475036)"><g><path d="M 42.765625 -64.40625 L 42.765625 0 L 12.5 0 L 12.5 -151.359375 L 42.359375 -151.359375 L 42.359375 -83.90625 L 39.21875 -83.90625 C 42.257812 -93.382812 46.84375 -100.734375 52.96875 -105.953125 C 59.101562 -111.171875 66.976562 -113.78125 76.59375 -113.78125 C 84.382812 -113.78125 91.191406 -112.082031 97.015625 -108.6875 C 102.835938 -105.300781 107.359375 -100.425781 110.578125 -94.0625 C 113.796875 -87.695312 115.40625 -80.046875 115.40625 -71.109375 L 115.40625 0 L 85.03125 0 L 85.03125 -65.71875 C 85.03125 -72.832031 83.234375 -78.367188 79.640625 -82.328125 C 76.054688 -86.296875 71.046875 -88.28125 64.609375 -88.28125 C 60.335938 -88.28125 56.5625 -87.347656 53.28125 -85.484375 C 50 -83.617188 47.425781 -80.925781 45.5625 -77.40625 C 43.695312 -73.882812 42.765625 -69.550781 42.765625 -64.40625 Z M 42.765625 -64.40625 "/></g></g></g><g fill="#000000" fill-opacity="1"><g transform="translate(273.421873, 201.475036)"><g><path d="M 12.5 0 L 12.5 -112.15625 L 42.765625 -112.15625 L 42.765625 0 Z M 27.625 -126.671875 C 22.945312 -126.671875 18.96875 -128.191406 15.6875 -131.234375 C 12.40625 -134.285156 10.765625 -138.015625 10.765625 -142.421875 C 10.765625 -146.828125 12.40625 -150.550781 15.6875 -153.59375 C 18.96875 -156.644531 22.945312 -158.171875 27.625 -158.171875 C 32.300781 -158.171875 36.265625 -156.644531 39.515625 -153.59375 C 42.765625 -150.550781 44.390625 -146.828125 44.390625 -142.421875 C 44.390625 -138.015625 42.765625 -134.285156 39.515625 -131.234375 C 36.265625 -128.191406 32.300781 -126.671875 27.625 -126.671875 Z M 27.625 -126.671875 "/></g></g></g><g fill="#000000" fill-opacity="1"><g transform="translate(332.846919, 201.475036)"><g><path d="M 75.484375 -112.15625 L 75.484375 -88.890625 L 1.9375 -88.890625 L 1.9375 -112.15625 Z M 21.84375 0 L 21.84375 -122 C 21.84375 -129.789062 23.378906 -136.257812 26.453125 -141.40625 C 29.535156 -146.550781 33.820312 -150.410156 39.3125 -152.984375 C 44.800781 -155.554688 51.097656 -156.84375 58.203125 -156.84375 C 62.742188 -156.84375 66.925781 -156.554688 70.75 -155.984375 C 74.582031 -155.410156 77.34375 -154.882812 79.03125 -154.40625 L 74.765625 -131.34375 C 73.617188 -131.613281 72.113281 -131.882812 70.25 -132.15625 C 68.382812 -132.425781 66.503906 -132.5625 64.609375 -132.5625 C 60.066406 -132.5625 56.847656 -131.507812 54.953125 -129.40625 C 53.054688 -127.3125 52.109375 -124.234375 52.109375 -120.171875 L 52.109375 0 Z M 21.84375 0 "/></g></g></g><g fill="#000000" fill-opacity="1"><g transform="translate(410.253051, 201.475036)"><g><path d="M 70 -112.15625 L 70 -88.890625 L 1.9375 -88.890625 L 1.9375 -112.15625 Z M 18.28125 -139.6875 L 48.5625 -139.6875 L 48.5625 -33.21875 C 48.5625 -29.625 49.351562 -27 50.9375 -25.34375 C 52.53125 -23.6875 55.191406 -22.859375 58.921875 -22.859375 C 60.273438 -22.859375 62.015625 -22.972656 64.140625 -23.203125 C 66.273438 -23.441406 67.921875 -23.664062 69.078125 -23.875 L 72.4375 -0.8125 C 69.382812 -0.0625 66.195312 0.460938 62.875 0.765625 C 59.5625 1.066406 56.347656 1.21875 53.234375 1.21875 C 41.722656 1.21875 33.019531 -1.4375 27.125 -6.75 C 21.226562 -12.070312 18.28125 -19.84375 18.28125 -30.0625 Z M 18.28125 -139.6875 "/></g></g></g><g fill="#000000" fill-opacity="1"><g transform="translate(490.706833, 201.475036)"><g><path d="M 79.4375 2.140625 C 65.957031 2.140625 53.882812 -0.941406 43.21875 -7.109375 C 32.550781 -13.273438 24.15625 -22.144531 18.03125 -33.71875 C 11.90625 -45.300781 8.84375 -59.253906 8.84375 -75.578125 C 8.84375 -91.960938 11.921875 -105.960938 18.078125 -117.578125 C 24.242188 -129.191406 32.675781 -138.082031 43.375 -144.25 C 54.070312 -150.414062 66.09375 -153.5 79.4375 -153.5 C 88.101562 -153.5 96.175781 -152.28125 103.65625 -149.84375 C 111.144531 -147.40625 117.765625 -143.847656 123.515625 -139.171875 C 129.273438 -134.492188 134 -128.800781 137.6875 -122.09375 C 141.382812 -115.394531 143.8125 -107.78125 144.96875 -99.25 L 113.578125 -99.25 C 112.828125 -103.445312 111.46875 -107.203125 109.5 -110.515625 C 107.539062 -113.835938 105.101562 -116.648438 102.1875 -118.953125 C 99.28125 -121.253906 95.960938 -123 92.234375 -124.1875 C 88.515625 -125.375 84.453125 -125.96875 80.046875 -125.96875 C 72.054688 -125.96875 65.0625 -123.96875 59.0625 -119.96875 C 53.070312 -115.976562 48.453125 -110.238281 45.203125 -102.75 C 41.953125 -95.269531 40.328125 -86.210938 40.328125 -75.578125 C 40.328125 -64.804688 41.96875 -55.679688 45.25 -48.203125 C 48.539062 -40.722656 53.164062 -35.050781 59.125 -31.1875 C 65.082031 -27.320312 72.054688 -25.390625 80.046875 -25.390625 C 84.378906 -25.390625 88.40625 -26 92.125 -27.21875 C 95.851562 -28.4375 99.191406 -30.179688 102.140625 -32.453125 C 105.085938 -34.722656 107.539062 -37.515625 109.5 -40.828125 C 111.46875 -44.148438 112.859375 -47.910156 113.671875 -52.109375 L 145.0625 -52.109375 C 144.113281 -44.734375 141.925781 -37.789062 138.5 -31.28125 C 135.082031 -24.78125 130.546875 -19.007812 124.890625 -13.96875 C 119.242188 -8.925781 112.609375 -4.976562 104.984375 -2.125 C 97.367188 0.71875 88.851562 2.140625 79.4375 2.140625 Z M 79.4375 2.140625 "/></g></g></g><g fill="#000000" fill-opacity="1"><g transform="translate(648.164456, 201.475036)"><g><path d="M 63.078125 2.234375 C 51.773438 2.234375 41.972656 -0.1875 33.671875 -5.03125 C 25.378906 -9.875 18.976562 -16.644531 14.46875 -25.34375 C 9.96875 -34.050781 7.71875 -44.160156 7.71875 -55.671875 C 7.71875 -67.316406 9.96875 -77.488281 14.46875 -86.1875 C 18.976562 -94.894531 25.378906 -101.671875 33.671875 -106.515625 C 41.972656 -111.359375 51.773438 -113.78125 63.078125 -113.78125 C 74.328125 -113.78125 84.097656 -111.359375 92.390625 -106.515625 C 100.691406 -101.671875 107.09375 -94.894531 111.59375 -86.1875 C 116.09375 -77.488281 118.34375 -67.316406 118.34375 -55.671875 C 118.34375 -44.160156 116.09375 -34.050781 111.59375 -25.34375 C 107.09375 -16.644531 100.691406 -9.875 92.390625 -5.03125 C 84.097656 -0.1875 74.328125 2.234375 63.078125 2.234375 Z M 63.078125 -21.734375 C 68.367188 -21.734375 72.820312 -23.1875 76.4375 -26.09375 C 80.0625 -29.007812 82.820312 -33.023438 84.71875 -38.140625 C 86.613281 -43.253906 87.5625 -49.128906 87.5625 -55.765625 C 87.5625 -62.472656 86.613281 -68.363281 84.71875 -73.4375 C 82.820312 -78.519531 80.0625 -82.515625 76.4375 -85.421875 C 72.820312 -88.335938 68.367188 -89.796875 63.078125 -89.796875 C 57.796875 -89.796875 53.328125 -88.335938 49.671875 -85.421875 C 46.015625 -82.515625 43.253906 -78.519531 41.390625 -73.4375 C 39.535156 -68.363281 38.609375 -62.472656 38.609375 -55.765625 C 38.609375 -49.128906 39.535156 -43.253906 41.390625 -38.140625 C 43.253906 -33.023438 46 -29.007812 49.625 -26.09375 C 53.25 -23.1875 57.734375 -21.734375 63.078125 -21.734375 Z M 63.078125 -21.734375 "/></g></g></g><g fill="#000000" fill-opacity="1"><g transform="translate(780.3266, 201.475036)"><g><path d="M 44.390625 2.140625 C 37.210938 2.140625 30.78125 0.882812 25.09375 -1.625 C 19.40625 -4.132812 14.9375 -7.875 11.6875 -12.84375 C 8.4375 -17.820312 6.8125 -24.003906 6.8125 -31.390625 C 6.8125 -37.691406 7.960938 -42.941406 10.265625 -47.140625 C 12.566406 -51.335938 15.710938 -54.722656 19.703125 -57.296875 C 23.703125 -59.867188 28.257812 -61.8125 33.375 -63.125 C 38.488281 -64.445312 43.851562 -65.378906 49.46875 -65.921875 C 56.039062 -66.597656 61.320312 -67.222656 65.3125 -67.796875 C 69.3125 -68.378906 72.222656 -69.28125 74.046875 -70.5 C 75.878906 -71.71875 76.796875 -73.546875 76.796875 -75.984375 L 76.796875 -76.5 C 76.796875 -79.613281 76.101562 -82.269531 74.71875 -84.46875 C 73.332031 -86.664062 71.316406 -88.359375 68.671875 -89.546875 C 66.023438 -90.734375 62.804688 -91.328125 59.015625 -91.328125 C 55.160156 -91.328125 51.789062 -90.734375 48.90625 -89.546875 C 46.03125 -88.359375 43.695312 -86.765625 41.90625 -84.765625 C 40.113281 -82.773438 38.84375 -80.523438 38.09375 -78.015625 L 10.15625 -81.578125 C 11.71875 -88.347656 14.695312 -94.132812 19.09375 -98.9375 C 23.5 -103.75 29.117188 -107.425781 35.953125 -109.96875 C 42.796875 -112.507812 50.585938 -113.78125 59.328125 -113.78125 C 65.691406 -113.78125 71.734375 -113.035156 77.453125 -111.546875 C 83.179688 -110.054688 88.28125 -107.75 92.75 -104.625 C 97.21875 -101.507812 100.722656 -97.566406 103.265625 -92.796875 C 105.804688 -88.023438 107.078125 -82.320312 107.078125 -75.6875 L 107.078125 0 L 78.125 0 L 78.125 -15.640625 L 77.203125 -15.640625 C 75.378906 -12.117188 72.957031 -9.019531 69.9375 -6.34375 C 66.925781 -3.675781 63.320312 -1.59375 59.125 -0.09375 C 54.925781 1.394531 50.015625 2.140625 44.390625 2.140625 Z M 52.921875 -19.09375 C 57.734375 -19.09375 61.929688 -20.039062 65.515625 -21.9375 C 69.109375 -23.832031 71.921875 -26.367188 73.953125 -29.546875 C 75.984375 -32.734375 77 -36.328125 77 -40.328125 L 77 -52.21875 C 76.050781 -51.675781 74.726562 -51.132812 73.03125 -50.59375 C 71.34375 -50.050781 69.414062 -49.578125 67.25 -49.171875 C 65.082031 -48.765625 62.894531 -48.390625 60.6875 -48.046875 C 58.488281 -47.710938 56.476562 -47.410156 54.65625 -47.140625 C 51 -46.597656 47.75 -45.734375 44.90625 -44.546875 C 42.0625 -43.359375 39.859375 -41.765625 38.296875 -39.765625 C 36.742188 -37.773438 35.96875 -35.285156 35.96875 -32.296875 C 35.96875 -29.453125 36.691406 -27.046875 38.140625 -25.078125 C 39.597656 -23.117188 41.597656 -21.628906 44.140625 -20.609375 C 46.679688 -19.597656 49.609375 -19.09375 52.921875 -19.09375 Z M 52.921875 -19.09375 "/></g></g></g><g fill="#000000" fill-opacity="1"><g transform="translate(903.955347, 201.475036)"><g><path d="M 62.875 2.234375 C 51.632812 2.234375 41.882812 -0.1875 33.625 -5.03125 C 25.363281 -9.875 18.976562 -16.644531 14.46875 -25.34375 C 9.96875 -34.050781 7.71875 -44.160156 7.71875 -55.671875 C 7.71875 -67.253906 9.96875 -77.410156 14.46875 -86.140625 C 18.976562 -94.878906 25.363281 -101.671875 33.625 -106.515625 C 41.882812 -111.359375 51.632812 -113.78125 62.875 -113.78125 C 69.71875 -113.78125 76 -112.878906 81.71875 -111.078125 C 87.445312 -109.285156 92.507812 -106.695312 96.90625 -103.3125 C 101.3125 -99.925781 104.921875 -95.84375 107.734375 -91.0625 C 110.546875 -86.289062 112.425781 -80.925781 113.375 -74.96875 L 84.921875 -70.90625 C 84.316406 -73.820312 83.40625 -76.429688 82.1875 -78.734375 C 80.96875 -81.035156 79.441406 -83.015625 77.609375 -84.671875 C 75.785156 -86.328125 73.671875 -87.59375 71.265625 -88.46875 C 68.859375 -89.351562 66.164062 -89.796875 63.1875 -89.796875 C 57.832031 -89.796875 53.34375 -88.375 49.71875 -85.53125 C 46.101562 -82.6875 43.347656 -78.707031 41.453125 -73.59375 C 39.554688 -68.476562 38.609375 -62.535156 38.609375 -55.765625 C 38.609375 -49.066406 39.554688 -43.160156 41.453125 -38.046875 C 43.347656 -32.929688 46.101562 -28.929688 49.71875 -26.046875 C 53.34375 -23.171875 57.832031 -21.734375 63.1875 -21.734375 C 66.164062 -21.734375 68.859375 -22.191406 71.265625 -23.109375 C 73.671875 -24.023438 75.800781 -25.328125 77.65625 -27.015625 C 79.519531 -28.710938 81.078125 -30.765625 82.328125 -33.171875 C 83.585938 -35.578125 84.488281 -38.300781 85.03125 -41.34375 L 113.46875 -37.1875 C 112.59375 -31.15625 110.75 -25.734375 107.9375 -20.921875 C 105.125 -16.117188 101.515625 -11.972656 97.109375 -8.484375 C 92.710938 -4.992188 87.617188 -2.332031 81.828125 -0.5 C 76.035156 1.320312 69.71875 2.234375 62.875 2.234375 Z M 62.875 2.234375 "/></g></g></g><g fill="#000000" fill-opacity="1"><g transform="translate(1029.006344, 201.475036)"><g><path d="M 42.765625 -64.40625 L 42.765625 0 L 12.5 0 L 12.5 -151.359375 L 42.359375 -151.359375 L 42.359375 -83.90625 L 39.21875 -83.90625 C 42.257812 -93.382812 46.84375 -100.734375 52.96875 -105.953125 C 59.101562 -111.171875 66.976562 -113.78125 76.59375 -113.78125 C 84.382812 -113.78125 91.191406 -112.082031 97.015625 -108.6875 C 102.835938 -105.300781 107.359375 -100.425781 110.578125 -94.0625 C 113.796875 -87.695312 115.40625 -80.046875 115.40625 -71.109375 L 115.40625 0 L 85.03125 0 L 85.03125 -65.71875 C 85.03125 -72.832031 83.234375 -78.367188 79.640625 -82.328125 C 76.054688 -86.296875 71.046875 -88.28125 64.609375 -88.28125 C 60.335938 -88.28125 56.5625 -87.347656 53.28125 -85.484375 C 50 -83.617188 47.425781 -80.925781 45.5625 -77.40625 C 43.695312 -73.882812 42.765625 -69.550781 42.765625 -64.40625 Z M 42.765625 -64.40625 "/></g></g></g></g></g></svg>