<svg width="44" height="44" viewBox="0 0 44 44" xmlns="http://www.w3.org/2000/svg">
  <!-- Rounded blue square -->
  <rect x="2" y="2" width="40" height="40" rx="12" fill="#007AFF"></rect>

  <!-- White speech bubble -->
  <path d="M22 12C16.48 12 12 15.77 12 20.4C12 23.02 13.42 25.32 15.66 26.81C15.42 27.76 14.33 31.39 14.19 31.96C14.01 32.7 14.73 33.28 15.36 32.93C16.22 32.46 20.03 30.32 21.13 29.68C21.41 29.83 21.7 29.98 22.01 30.11C22.32 30.23 22.66 30.32 23 30.38C28.52 30.38 33 26.61 33 22C33 17.38 28.52 12 22 12Z" fill="white"></path>
</svg>
