<svg xmlns="http://www.w3.org/2000/svg" xmlns:xlink="http://www.w3.org/1999/xlink" width="256" zoomAndPan="magnify" viewBox="0 0 192 191.999996" height="256" preserveAspectRatio="xMidYMid meet" version="1.0"><defs><clipPath id="74b9aa744c"><path d="M 123 26 L 189 26 L 189 81 L 123 81 Z M 123 26 " clip-rule="nonzero"/></clipPath><clipPath id="80902e3dbf"><path d="M -14.457031 75.792969 L 179.96875 19.183594 L 206.597656 110.636719 L 12.167969 167.246094 Z M -14.457031 75.792969 " clip-rule="nonzero"/></clipPath><clipPath id="3e2813b616"><path d="M -14.457031 75.792969 L 179.96875 19.183594 L 206.597656 110.636719 L 12.167969 167.246094 Z M -14.457031 75.792969 " clip-rule="nonzero"/></clipPath><clipPath id="51e92c3320"><path d="M 141 48 L 165 48 L 165 67 L 141 67 Z M 141 48 " clip-rule="nonzero"/></clipPath><clipPath id="76eccb601d"><path d="M -14.457031 75.792969 L 179.96875 19.183594 L 206.597656 110.636719 L 12.167969 167.246094 Z M -14.457031 75.792969 " clip-rule="nonzero"/></clipPath><clipPath id="5e848baac6"><path d="M -14.457031 75.792969 L 179.96875 19.183594 L 206.597656 110.636719 L 12.167969 167.246094 Z M -14.457031 75.792969 " clip-rule="nonzero"/></clipPath><clipPath id="e3f37ef00b"><path d="M 6 103 L 68 103 L 68 162 L 6 162 Z M 6 103 " clip-rule="nonzero"/></clipPath><clipPath id="170f24f829"><path d="M -14.457031 75.792969 L 179.96875 19.183594 L 206.597656 110.636719 L 12.167969 167.246094 Z M -14.457031 75.792969 " clip-rule="nonzero"/></clipPath><clipPath id="2b4cf96170"><path d="M -14.457031 75.792969 L 179.96875 19.183594 L 206.597656 110.636719 L 12.167969 167.246094 Z M -14.457031 75.792969 " clip-rule="nonzero"/></clipPath><clipPath id="a255e80736"><path d="M 26 116 L 50 116 L 50 135 L 26 135 Z M 26 116 " clip-rule="nonzero"/></clipPath><clipPath id="e9022babc4"><path d="M -14.457031 75.792969 L 179.96875 19.183594 L 206.597656 110.636719 L 12.167969 167.246094 Z M -14.457031 75.792969 " clip-rule="nonzero"/></clipPath><clipPath id="1270149d49"><path d="M -14.457031 75.792969 L 179.96875 19.183594 L 206.597656 110.636719 L 12.167969 167.246094 Z M -14.457031 75.792969 " clip-rule="nonzero"/></clipPath><clipPath id="d87c5d22a8"><path d="M 114 55 L 138 55 L 138 96 L 114 96 Z M 114 55 " clip-rule="nonzero"/></clipPath><clipPath id="cb0d6a824f"><path d="M -14.457031 75.792969 L 179.96875 19.183594 L 206.597656 110.636719 L 12.167969 167.246094 Z M -14.457031 75.792969 " clip-rule="nonzero"/></clipPath><clipPath id="188a2af05b"><path d="M -14.457031 75.792969 L 179.96875 19.183594 L 206.597656 110.636719 L 12.167969 167.246094 Z M -14.457031 75.792969 " clip-rule="nonzero"/></clipPath><clipPath id="a4cf7435be"><path d="M 51 93 L 73 93 L 73 131 L 51 131 Z M 51 93 " clip-rule="nonzero"/></clipPath><clipPath id="464912bf68"><path d="M -14.457031 75.792969 L 179.96875 19.183594 L 206.597656 110.636719 L 12.167969 167.246094 Z M -14.457031 75.792969 " clip-rule="nonzero"/></clipPath><clipPath id="6ab26f4c21"><path d="M -14.457031 75.792969 L 179.96875 19.183594 L 206.597656 110.636719 L 12.167969 167.246094 Z M -14.457031 75.792969 " clip-rule="nonzero"/></clipPath><clipPath id="bcecd64022"><path d="M 54 66 L 100 66 L 100 137 L 54 137 Z M 54 66 " clip-rule="nonzero"/></clipPath><clipPath id="79d7706ef6"><path d="M -14.457031 75.792969 L 179.96875 19.183594 L 206.597656 110.636719 L 12.167969 167.246094 Z M -14.457031 75.792969 " clip-rule="nonzero"/></clipPath><clipPath id="4e0c703f37"><path d="M -14.457031 75.792969 L 179.96875 19.183594 L 206.597656 110.636719 L 12.167969 167.246094 Z M -14.457031 75.792969 " clip-rule="nonzero"/></clipPath><clipPath id="e28f829dd7"><path d="M 68 54 L 120 54 L 120 134 L 68 134 Z M 68 54 " clip-rule="nonzero"/></clipPath><clipPath id="b639369ca7"><path d="M -14.457031 75.792969 L 179.96875 19.183594 L 206.597656 110.636719 L 12.167969 167.246094 Z M -14.457031 75.792969 " clip-rule="nonzero"/></clipPath><clipPath id="7098d5592f"><path d="M -14.457031 75.792969 L 179.96875 19.183594 L 206.597656 110.636719 L 12.167969 167.246094 Z M -14.457031 75.792969 " clip-rule="nonzero"/></clipPath><clipPath id="774a1442dc"><path d="M 87 50 L 134 50 L 134 122 L 87 122 Z M 87 50 " clip-rule="nonzero"/></clipPath><clipPath id="4abfafdd87"><path d="M -14.457031 75.792969 L 179.96875 19.183594 L 206.597656 110.636719 L 12.167969 167.246094 Z M -14.457031 75.792969 " clip-rule="nonzero"/></clipPath><clipPath id="22c9ad00dd"><path d="M -14.457031 75.792969 L 179.96875 19.183594 L 206.597656 110.636719 L 12.167969 167.246094 Z M -14.457031 75.792969 " clip-rule="nonzero"/></clipPath><clipPath id="1f1d78bc31"><path d="M 100 51 L 138 51 L 138 111 L 100 111 Z M 100 51 " clip-rule="nonzero"/></clipPath><clipPath id="aa6029770d"><path d="M -14.457031 75.792969 L 179.96875 19.183594 L 206.597656 110.636719 L 12.167969 167.246094 Z M -14.457031 75.792969 " clip-rule="nonzero"/></clipPath><clipPath id="840d3962dc"><path d="M -14.457031 75.792969 L 179.96875 19.183594 L 206.597656 110.636719 L 12.167969 167.246094 Z M -14.457031 75.792969 " clip-rule="nonzero"/></clipPath><clipPath id="dc481a4654"><path d="M 77 51 L 128 51 L 128 129 L 77 129 Z M 77 51 " clip-rule="nonzero"/></clipPath><clipPath id="ac412558ae"><path d="M -14.457031 75.792969 L 179.96875 19.183594 L 206.597656 110.636719 L 12.167969 167.246094 Z M -14.457031 75.792969 " clip-rule="nonzero"/></clipPath><clipPath id="a14b1a549a"><path d="M -14.457031 75.792969 L 179.96875 19.183594 L 206.597656 110.636719 L 12.167969 167.246094 Z M -14.457031 75.792969 " clip-rule="nonzero"/></clipPath><clipPath id="015266294d"><path d="M 60 59 L 111 59 L 111 137 L 60 137 Z M 60 59 " clip-rule="nonzero"/></clipPath><clipPath id="2bc9409dff"><path d="M -14.457031 75.792969 L 179.96875 19.183594 L 206.597656 110.636719 L 12.167969 167.246094 Z M -14.457031 75.792969 " clip-rule="nonzero"/></clipPath><clipPath id="8721907a47"><path d="M -14.457031 75.792969 L 179.96875 19.183594 L 206.597656 110.636719 L 12.167969 167.246094 Z M -14.457031 75.792969 " clip-rule="nonzero"/></clipPath><clipPath id="4090014c5e"><path d="M 51 77 L 88 77 L 88 137 L 51 137 Z M 51 77 " clip-rule="nonzero"/></clipPath><clipPath id="c338e91e74"><path d="M -14.457031 75.792969 L 179.96875 19.183594 L 206.597656 110.636719 L 12.167969 167.246094 Z M -14.457031 75.792969 " clip-rule="nonzero"/></clipPath><clipPath id="4d078efceb"><path d="M -14.457031 75.792969 L 179.96875 19.183594 L 206.597656 110.636719 L 12.167969 167.246094 Z M -14.457031 75.792969 " clip-rule="nonzero"/></clipPath></defs><g clip-path="url(#74b9aa744c)"><g clip-path="url(#80902e3dbf)"><g clip-path="url(#3e2813b616)"><path fill="#737373" d="M 186.910156 73.988281 C 191.867188 69.59375 184.769531 66.511719 176.082031 61.027344 C 183.175781 53.828125 186.890625 46.195312 184.175781 42.175781 C 181.519531 38.246094 172.644531 37.851562 162.460938 40.003906 C 160.425781 31.117188 160.898438 24.871094 154.863281 26.761719 C 137.976562 32.015625 122.246094 74.617188 123.660156 76.710938 C 125.082031 78.804688 174.136719 85.339844 186.910156 73.988281 " fill-opacity="1" fill-rule="nonzero"/></g></g></g><g clip-path="url(#51e92c3320)"><g clip-path="url(#76eccb601d)"><g clip-path="url(#5e848baac6)"><path fill="#ffffff" d="M 141.015625 66.234375 C 143.640625 60.25 147.089844 53.667969 150.550781 48.5 L 152.238281 55.949219 L 164.742188 53.316406 L 154.703125 63.507812 L 160.023438 66.867188 C 153.785156 67.027344 146.96875 66.769531 141.015625 66.234375 " fill-opacity="1" fill-rule="nonzero"/></g></g></g><g clip-path="url(#e3f37ef00b)"><g clip-path="url(#170f24f829)"><g clip-path="url(#2b4cf96170)"><path fill="#737373" d="M 32.761719 161.054688 C 26.4375 163.027344 27.472656 155.371094 27.265625 145.101562 C 17.429688 147.460938 8.964844 146.699219 6.929688 142.300781 C 4.945312 137.996094 9.175781 130.199219 16.28125 122.578125 C 9.699219 116.25 4.125 113.421875 8.851562 109.226562 C 22.0625 97.484375 66.675781 105.996094 67.746094 108.300781 C 68.804688 110.585938 49.078125 155.980469 32.761719 161.054688 " fill-opacity="1" fill-rule="nonzero"/></g></g></g><g clip-path="url(#a255e80736)"><g clip-path="url(#e9022babc4)"><g clip-path="url(#1270149d49)"><path fill="#ffffff" d="M 35.203125 122.058594 L 29.691406 116.765625 C 35.917969 116.476562 43.328125 116.910156 49.808594 117.746094 C 47.191406 123.128906 43.90625 129.113281 40.550781 134.359375 L 40.410156 128.066406 L 26.503906 131.40625 L 35.203125 122.058594 " fill-opacity="1" fill-rule="nonzero"/></g></g></g><g clip-path="url(#d87c5d22a8)"><g clip-path="url(#cb0d6a824f)"><g clip-path="url(#188a2af05b)"><path fill="#737373" d="M 131.695312 72.5 C 127.589844 65.238281 121.683594 59.625 114.867188 55.910156 L 137.210938 95.476562 C 137.539062 87.714844 135.800781 79.761719 131.695312 72.5 " fill-opacity="1" fill-rule="nonzero"/></g></g></g><g clip-path="url(#a4cf7435be)"><g clip-path="url(#464912bf68)"><g clip-path="url(#6ab26f4c21)"><path fill="#737373" d="M 56.769531 114.820312 C 60.589844 121.601562 65.992188 126.929688 72.242188 130.628906 L 51.207031 93.414062 C 51.164062 100.675781 52.949219 108.050781 56.769531 114.820312 " fill-opacity="1" fill-rule="nonzero"/></g></g></g><g clip-path="url(#bcecd64022)"><g clip-path="url(#79d7706ef6)"><g clip-path="url(#4e0c703f37)"><path fill="#737373" d="M 54.324219 77.621094 L 87.375 136.121094 C 91.429688 136.785156 95.582031 136.871094 99.71875 136.328125 L 60.507812 66.929688 C 57.933594 70.199219 55.847656 73.792969 54.324219 77.621094 " fill-opacity="1" fill-rule="nonzero"/></g></g></g><g clip-path="url(#e28f829dd7)"><g clip-path="url(#b639369ca7)"><g clip-path="url(#7098d5592f)"><path fill="#737373" d="M 73.066406 56.195312 C 71.378906 57.164062 69.789062 58.214844 68.273438 59.351562 L 110.214844 133.597656 C 111.964844 132.894531 113.707031 132.074219 115.382812 131.121094 C 116.835938 130.300781 118.222656 129.40625 119.539062 128.445312 L 77.496094 54.027344 C 76 54.65625 74.519531 55.386719 73.066406 56.195312 " fill-opacity="1" fill-rule="nonzero"/></g></g></g><g clip-path="url(#774a1442dc)"><g clip-path="url(#4abfafdd87)"><g clip-path="url(#22c9ad00dd)"><path fill="#737373" d="M 100.082031 51.039062 C 96.070312 50.492188 91.960938 50.5 87.875 51.101562 L 127.402344 121.058594 C 130.019531 117.882812 132.152344 114.371094 133.742188 110.644531 L 100.082031 51.039062 " fill-opacity="1" fill-rule="nonzero"/></g></g></g><g clip-path="url(#1f1d78bc31)"><g clip-path="url(#aa6029770d)"><g clip-path="url(#840d3962dc)"><path fill="#ffffff" d="M 137.210938 95.476562 L 114.867188 55.910156 C 110.273438 53.410156 105.25 51.765625 100.082031 51.039062 L 133.742188 110.644531 C 135.816406 105.855469 136.988281 100.703125 137.210938 95.476562 " fill-opacity="1" fill-rule="nonzero"/></g></g></g><g clip-path="url(#dc481a4654)"><g clip-path="url(#ac412558ae)"><g clip-path="url(#a14b1a549a)"><path fill="#ffffff" d="M 77.496094 54.027344 L 119.539062 128.445312 C 122.519531 126.28125 125.132812 123.804688 127.402344 121.058594 L 87.875 51.101562 C 84.371094 51.628906 80.882812 52.597656 77.496094 54.027344 " fill-opacity="1" fill-rule="nonzero"/></g></g></g><g clip-path="url(#015266294d)"><g clip-path="url(#2bc9409dff)"><g clip-path="url(#8721907a47)"><path fill="#ffffff" d="M 60.507812 66.929688 L 99.71875 136.328125 C 103.273438 135.882812 106.785156 134.964844 110.214844 133.597656 L 68.273438 59.351562 C 65.332031 61.574219 62.738281 64.121094 60.507812 66.929688 " fill-opacity="1" fill-rule="nonzero"/></g></g></g><g clip-path="url(#4090014c5e)"><g clip-path="url(#c338e91e74)"><g clip-path="url(#4d078efceb)"><path fill="#ffffff" d="M 51.207031 93.414062 L 72.242188 130.628906 C 76.902344 133.410156 82.046875 135.257812 87.375 136.121094 L 54.324219 77.621094 C 52.3125 82.621094 51.246094 87.980469 51.207031 93.414062 " fill-opacity="1" fill-rule="nonzero"/></g></g></g></svg>