<svg xmlns="http://www.w3.org/2000/svg" viewBox="0 0 192 192"><defs><clipPath id="a"><path d="M123 26h66v55h-66Zm0 0"/></clipPath><clipPath id="b"><path d="m-14.457 75.793 194.426-56.61 26.629 91.454-194.43 56.61Zm0 0"/></clipPath><clipPath id="c"><path d="m-14.457 75.793 194.426-56.61 26.629 91.454-194.43 56.61Zm0 0"/></clipPath><clipPath id="d"><path d="M141 48h24v19h-24Zm0 0"/></clipPath><clipPath id="e"><path d="m-14.457 75.793 194.426-56.61 26.629 91.454-194.43 56.61Zm0 0"/></clipPath><clipPath id="f"><path d="m-14.457 75.793 194.426-56.61 26.629 91.454-194.43 56.61Zm0 0"/></clipPath><clipPath id="g"><path d="M6 103h62v59H6Zm0 0"/></clipPath><clipPath id="h"><path d="m-14.457 75.793 194.426-56.61 26.629 91.454-194.43 56.61Zm0 0"/></clipPath><clipPath id="i"><path d="m-14.457 75.793 194.426-56.61 26.629 91.454-194.43 56.61Zm0 0"/></clipPath><clipPath id="j"><path d="M26 116h24v19H26Zm0 0"/></clipPath><clipPath id="k"><path d="m-14.457 75.793 194.426-56.61 26.629 91.454-194.43 56.61Zm0 0"/></clipPath><clipPath id="l"><path d="m-14.457 75.793 194.426-56.61 26.629 91.454-194.43 56.61Zm0 0"/></clipPath><clipPath id="m"><path d="M114 55h24v41h-24Zm0 0"/></clipPath><clipPath id="n"><path d="m-14.457 75.793 194.426-56.61 26.629 91.454-194.43 56.61Zm0 0"/></clipPath><clipPath id="o"><path d="m-14.457 75.793 194.426-56.61 26.629 91.454-194.43 56.61Zm0 0"/></clipPath><clipPath id="p"><path d="M51 93h22v38H51Zm0 0"/></clipPath><clipPath id="q"><path d="m-14.457 75.793 194.426-56.61 26.629 91.454-194.43 56.61Zm0 0"/></clipPath><clipPath id="r"><path d="m-14.457 75.793 194.426-56.61 26.629 91.454-194.43 56.61Zm0 0"/></clipPath><clipPath id="s"><path d="M54 66h46v71H54Zm0 0"/></clipPath><clipPath id="t"><path d="m-14.457 75.793 194.426-56.61 26.629 91.454-194.43 56.61Zm0 0"/></clipPath><clipPath id="u"><path d="m-14.457 75.793 194.426-56.61 26.629 91.454-194.43 56.61Zm0 0"/></clipPath><clipPath id="v"><path d="M68 54h52v80H68Zm0 0"/></clipPath><clipPath id="w"><path d="m-14.457 75.793 194.426-56.61 26.629 91.454-194.43 56.61Zm0 0"/></clipPath><clipPath id="x"><path d="m-14.457 75.793 194.426-56.61 26.629 91.454-194.43 56.61Zm0 0"/></clipPath><clipPath id="y"><path d="M87 50h47v72H87Zm0 0"/></clipPath><clipPath id="z"><path d="m-14.457 75.793 194.426-56.61 26.629 91.454-194.43 56.61Zm0 0"/></clipPath><clipPath id="A"><path d="m-14.457 75.793 194.426-56.61 26.629 91.454-194.43 56.61Zm0 0"/></clipPath><clipPath id="B"><path d="M100 51h38v60h-38Zm0 0"/></clipPath><clipPath id="C"><path d="m-14.457 75.793 194.426-56.61 26.629 91.454-194.43 56.61Zm0 0"/></clipPath><clipPath id="D"><path d="m-14.457 75.793 194.426-56.61 26.629 91.454-194.43 56.61Zm0 0"/></clipPath><clipPath id="E"><path d="M77 51h51v78H77Zm0 0"/></clipPath><clipPath id="F"><path d="m-14.457 75.793 194.426-56.61 26.629 91.454-194.43 56.61Zm0 0"/></clipPath><clipPath id="G"><path d="m-14.457 75.793 194.426-56.61 26.629 91.454-194.43 56.61Zm0 0"/></clipPath><clipPath id="H"><path d="M60 59h51v78H60Zm0 0"/></clipPath><clipPath id="I"><path d="m-14.457 75.793 194.426-56.61 26.629 91.454-194.43 56.61Zm0 0"/></clipPath><clipPath id="J"><path d="m-14.457 75.793 194.426-56.61 26.629 91.454-194.43 56.61Zm0 0"/></clipPath><clipPath id="K"><path d="M51 77h37v60H51Zm0 0"/></clipPath><clipPath id="L"><path d="m-14.457 75.793 194.426-56.61 26.629 91.454-194.43 56.61Zm0 0"/></clipPath><clipPath id="M"><path d="m-14.457 75.793 194.426-56.61 26.629 91.454-194.43 56.61Zm0 0"/></clipPath></defs><g clip-path="url(#a)"><g clip-path="url(#b)"><g clip-path="url(#c)"><path fill="#737373" d="M186.91 73.988c4.957-4.394-2.14-7.476-10.828-12.96 7.094-7.2 10.809-14.833 8.094-18.852-2.656-3.93-11.531-4.324-21.715-2.172-2.035-8.887-1.563-15.133-7.598-13.242-16.886 5.254-32.617 47.855-31.203 49.949 1.422 2.094 50.477 8.629 63.25-2.723"/></g></g></g><g clip-path="url(#d)"><g clip-path="url(#e)"><g clip-path="url(#f)"><path fill="#fff" d="M141.016 66.234c2.625-5.984 6.074-12.566 9.535-17.734l1.687 7.45 12.504-2.634-10.039 10.192 5.32 3.36c-6.238.16-13.054-.098-19.007-.634"/></g></g></g><g clip-path="url(#g)"><g clip-path="url(#h)"><g clip-path="url(#i)"><path fill="#737373" d="M32.762 161.055c-6.324 1.972-5.29-5.684-5.496-15.953-9.836 2.359-18.301 1.597-20.336-2.801-1.985-4.305 2.246-12.102 9.351-19.723-6.582-6.328-12.156-9.156-7.43-13.351 13.212-11.743 57.825-3.23 58.895-.926 1.059 2.285-18.668 47.68-34.984 52.754"/></g></g></g><g clip-path="url(#j)"><g clip-path="url(#k)"><g clip-path="url(#l)"><path fill="#fff" d="m35.203 122.059-5.512-5.293c6.227-.29 13.637.144 20.118.98-2.618 5.383-5.903 11.367-9.258 16.613l-.14-6.293-13.907 3.34z"/></g></g></g><g clip-path="url(#m)"><g clip-path="url(#n)"><g clip-path="url(#o)"><path fill="#737373" d="M131.695 72.5a42.84 42.84 0 0 0-16.828-16.59l22.344 39.567c.328-7.762-1.41-15.715-5.516-22.977"/></g></g></g><g clip-path="url(#p)"><g clip-path="url(#q)"><g clip-path="url(#r)"><path fill="#737373" d="M56.77 114.82a42.6 42.6 0 0 0 15.472 15.809L51.207 93.414a42.9 42.9 0 0 0 5.563 21.406"/></g></g></g><g clip-path="url(#s)"><g clip-path="url(#t)"><g clip-path="url(#u)"><path fill="#737373" d="m54.324 77.621 33.051 58.5c4.055.664 8.207.75 12.344.207L60.508 66.93a43 43 0 0 0-6.184 10.691"/></g></g></g><g clip-path="url(#v)"><g clip-path="url(#w)"><g clip-path="url(#x)"><path fill="#737373" d="M73.066 56.195a47 47 0 0 0-4.793 3.157l41.942 74.246a42.6 42.6 0 0 0 9.324-5.153L77.496 54.027a45 45 0 0 0-4.43 2.168"/></g></g></g><g clip-path="url(#y)"><g clip-path="url(#z)"><g clip-path="url(#A)"><path fill="#737373" d="M100.082 51.04a43.5 43.5 0 0 0-12.207.062l39.527 69.957a42.8 42.8 0 0 0 6.34-10.414z"/></g></g></g><g clip-path="url(#B)"><g clip-path="url(#C)"><g clip-path="url(#D)"><path fill="#fff" d="M137.21 95.477 114.868 55.91a43.7 43.7 0 0 0-14.785-4.87l33.66 59.605a42.8 42.8 0 0 0 3.469-15.168"/></g></g></g><g clip-path="url(#E)"><g clip-path="url(#F)"><g clip-path="url(#G)"><path fill="#fff" d="m77.496 54.027 42.043 74.418a42.8 42.8 0 0 0 7.863-7.386L87.875 51.102a43.2 43.2 0 0 0-10.379 2.925"/></g></g></g><g clip-path="url(#H)"><g clip-path="url(#I)"><g clip-path="url(#J)"><path fill="#fff" d="m60.508 66.93 39.21 69.398c3.555-.445 7.067-1.363 10.497-2.73L68.273 59.352a43 43 0 0 0-7.765 7.578"/></g></g></g><g clip-path="url(#K)"><g clip-path="url(#L)"><g clip-path="url(#M)"><path fill="#fff" d="m51.207 93.414 21.035 37.215a42.9 42.9 0 0 0 15.133 5.492l-33.05-58.5a43.2 43.2 0 0 0-3.118 15.793"/></g></g></g></svg>